<svg xmlns="http://www.w3.org/2000/svg" viewBox="0 0 730 337"><path d="M274,113.27,249.26,76.43v36.84H222.62v-85h26.64V64.07l24.36-35.76h30.12L274.46,69l31.2,44.28Z" fill="tomato"/><path d="M384.86,45.59v67.68H358.22V103a24.06,24.06,0,0,1-8.34,7.8,24.51,24.51,0,0,1-12.42,3q-11.64,0-18.18-7.8t-6.54-21.12V45.59h26.52V81.47a10.85,10.85,0,0,0,2.58,7.62,9.92,9.92,0,0,0,13.86,0,11,11,0,0,0,2.52-7.62V45.59Z" fill="tomato"/><path d="M433.46,48.65a23.4,23.4,0,0,1,12.24-3.54V73.55h-7.56q-7.56,0-11.1,2.64t-3.54,9.36v27.72H396.86V45.59H423.5V58.07A32.36,32.36,0,0,1,433.46,48.65Z" fill="tomato"/><path d="M466,111a28.65,28.65,0,0,1-11.7-8.64,23.06,23.06,0,0,1-4.92-12.48H475a6.29,6.29,0,0,0,2.58,4.44,9.24,9.24,0,0,0,5.34,1.44,5.28,5.28,0,0,0,3.24-.9,2.69,2.69,0,0,0,1.2-2.22,3.35,3.35,0,0,0-2.52-3.24,59.77,59.77,0,0,0-8.52-2.16,87.58,87.58,0,0,1-12.06-3.12A19.48,19.48,0,0,1,456,78.35q-3.54-4.08-3.54-11.28a20.44,20.44,0,0,1,3.3-11.34,22.15,22.15,0,0,1,9.78-8,37.9,37.9,0,0,1,15.72-2.94q13.68,0,21.42,6.72A27.6,27.6,0,0,1,511.94,69H488.3a7.1,7.1,0,0,0-2.52-4.26,8.16,8.16,0,0,0-5.16-1.5,5.28,5.28,0,0,0-3.12.78,2.7,2.7,0,0,0-1.08,2.34q0,2,2.52,3.06a47.89,47.89,0,0,0,8,2.1,87.64,87.64,0,0,1,12.36,3.24,20.38,20.38,0,0,1,8.76,6.18q3.72,4.38,3.72,12.06a18,18,0,0,1-3.48,10.8,23.08,23.08,0,0,1-10,7.56,39.13,39.13,0,0,1-15.3,2.76A43.29,43.29,0,0,1,466,111Z" fill="tomato"/><path d="M88.94,136.31v54.84q0,15.24-8,23.1t-22.38,7.86q-15.48,0-24.6-8.52t-9.12-24.84H51.14q0,5.16,1.68,7.26a5.53,5.53,0,0,0,4.56,2.1,4.61,4.61,0,0,0,3.72-1.56q1.32-1.56,1.32-5.4V136.31Z" fill="tomato"/><path d="M100.52,168.89a27.94,27.94,0,0,1,10-12,25.61,25.61,0,0,1,14.28-4.14,22.89,22.89,0,0,1,11.4,2.7,18.3,18.3,0,0,1,7.32,7.38v-9.24h26.52v67.68H143.54V212a18.3,18.3,0,0,1-7.32,7.38,22.89,22.89,0,0,1-11.4,2.7A25.61,25.61,0,0,1,110.54,218a27.94,27.94,0,0,1-10-12,43.56,43.56,0,0,1-3.66-18.54A43.56,43.56,0,0,1,100.52,168.89ZM140.78,179a9.85,9.85,0,0,0-14.16,0q-2.76,3-2.76,8.4t2.76,8.4a9.85,9.85,0,0,0,14.16,0q2.76-3,2.76-8.4T140.78,179Z" fill="tomato"/><path d="M216.38,196l10.8-42.36H255.5l-22.56,67.68H199.7l-22.56-67.68h28.32Z" fill="tomato"/><path d="M262.64,168.89a27.94,27.94,0,0,1,10-12,25.61,25.61,0,0,1,14.28-4.14,22.89,22.89,0,0,1,11.4,2.7,18.3,18.3,0,0,1,7.32,7.38v-9.24h26.52v67.68H305.66V212a18.3,18.3,0,0,1-7.32,7.38,22.89,22.89,0,0,1-11.4,2.7A25.61,25.61,0,0,1,272.66,218a27.94,27.94,0,0,1-10-12A43.56,43.56,0,0,1,259,187.43,43.56,43.56,0,0,1,262.64,168.89ZM302.9,179a9.85,9.85,0,0,0-14.16,0q-2.76,3-2.76,8.4t2.76,8.4a9.85,9.85,0,0,0,14.16,0q2.76-3,2.76-8.4T302.9,179Z" fill="tomato"/><path d="M357.32,219a28.65,28.65,0,0,1-11.7-8.64,23.06,23.06,0,0,1-4.92-12.48h25.56a6.29,6.29,0,0,0,2.58,4.44,9.24,9.24,0,0,0,5.34,1.44,5.28,5.28,0,0,0,3.24-.9,2.69,2.69,0,0,0,1.2-2.22,3.35,3.35,0,0,0-2.52-3.24,59.77,59.77,0,0,0-8.52-2.16,87.58,87.58,0,0,1-12.06-3.12,19.48,19.48,0,0,1-8.28-5.76q-3.54-4.08-3.54-11.28a20.44,20.44,0,0,1,3.3-11.34,22.15,22.15,0,0,1,9.78-8,37.9,37.9,0,0,1,15.72-2.94q13.68,0,21.42,6.72a27.6,27.6,0,0,1,9.3,17.52H379.58a7.1,7.1,0,0,0-2.52-4.26,8.16,8.16,0,0,0-5.16-1.5,5.28,5.28,0,0,0-3.12.78,2.7,2.7,0,0,0-1.08,2.34q0,2,2.52,3.06a47.89,47.89,0,0,0,8,2.1,87.64,87.64,0,0,1,12.36,3.24,20.38,20.38,0,0,1,8.76,6.18q3.72,4.38,3.72,12.06a18,18,0,0,1-3.48,10.8,23.08,23.08,0,0,1-10,7.56,39.13,39.13,0,0,1-15.3,2.76A43.29,43.29,0,0,1,357.32,219Z" fill="tomato"/><path d="M414.44,169A29.87,29.87,0,0,1,426.68,157a37.47,37.47,0,0,1,17.94-4.2q13.2,0,22.26,7.44t11.46,20.64h-28.2q-1.56-5.28-6.12-5.28a5.74,5.74,0,0,0-5.1,3q-1.86,3-1.86,8.88t1.86,8.88a5.74,5.74,0,0,0,5.1,3q4.56,0,6.12-5.28h28.2q-2.4,13.2-11.46,20.64t-22.26,7.44a37.47,37.47,0,0,1-17.94-4.2,29.87,29.87,0,0,1-12.24-12.06,40.92,40.92,0,0,1,0-36.84Z" fill="tomato"/><path d="M523.34,156.65a23.4,23.4,0,0,1,12.24-3.54v28.44H528q-7.56,0-11.1,2.64t-3.54,9.36v27.72H486.74V153.59h26.64v12.48A32.36,32.36,0,0,1,523.34,156.65Z" fill="tomato"/><path d="M545.06,144.47a12,12,0,0,1-4.2-9.36,12.28,12.28,0,0,1,4.2-9.54q4.2-3.78,11.16-3.78t11,3.78a12.28,12.28,0,0,1,4.2,9.54,12,12,0,0,1-4.2,9.36q-4.2,3.72-11,3.72T545.06,144.47Zm24.36,9.12v67.68H542.78V153.59Z" fill="tomato"/><path d="M615.32,155.45a22.55,22.55,0,0,1,11.34-2.7,25.61,25.61,0,0,1,14.28,4.14,27.94,27.94,0,0,1,10,12,43.56,43.56,0,0,1,3.66,18.54A43.56,43.56,0,0,1,651,206a27.94,27.94,0,0,1-10,12,25.61,25.61,0,0,1-14.28,4.14,22.55,22.55,0,0,1-11.34-2.7,18.41,18.41,0,0,1-7.26-7.38v41.64H581.42V153.59h26.64v9.24A18.41,18.41,0,0,1,615.32,155.45ZM624.86,179a9.85,9.85,0,0,0-14.16,0q-2.76,3-2.76,8.4t2.76,8.4a9.85,9.85,0,0,0,14.16,0q2.76-3,2.76-8.4T624.86,179Z" fill="tomato"/><path d="M705.14,198.59v22.68H695.06q-27.84,0-27.84-27.72V175.79h-8.4v-22.2h8.4V137.27h26.64v16.32h11v22.2h-11V194a4.57,4.57,0,0,0,1.14,3.48,5.37,5.37,0,0,0,3.78,1.08Z" fill="tomato"/><path d="M143.21,264.7v27.16c0,2.53,0,5.44,0,7.61H134.2a22.93,22.93,0,0,1-.31-2.4c-1.26,1.84-3.24,3-6.85,3-6.61,0-10.17-5.66-10.17-13,0-7.67,4.12-13.35,11.19-13.35,3,0,5.1.91,5.79,2.09V264.7Zm-16.75,22.12c0,4.41,1.29,6.68,3.91,6.68,3.54,0,3.85-3.21,3.85-6.65,0-4.22-.37-6.64-3.74-6.64C127.85,280.21,126.46,282.34,126.46,286.82Z" fill="none" stroke="tomato" stroke-miterlimit="10"/><path d="M148.46,299.47V264.7h9.36v34.77Z" fill="none" stroke="tomato" stroke-miterlimit="10"/><path d="M186.26,292a73.65,73.65,0,0,0,.31,7.46h-8.64a11.13,11.13,0,0,1-.39-2.32c-1.2,1.56-3,2.93-7.1,2.93-5.64,0-8.69-3.54-8.69-8,0-5.92,4.74-8.47,12.43-8.47h3.08v-1.4c0-1.61-.57-2.79-2.83-2.79s-2.67,1-2.89,2.6H162.9c.33-4.21,2.83-8.33,11.77-8.3,8.25,0,11.59,3.21,11.59,9.28Zm-9-3.71h-2.07c-3.22,0-4.28,1.13-4.28,3a2.5,2.5,0,0,0,2.74,2.67c3.17,0,3.61-2.18,3.61-4.88Z" fill="none" stroke="tomato" stroke-miterlimit="10"/><path d="M209.56,291.7c.39,1.61,1.73,2.5,3.77,2.5,1.85,0,2.65-.57,2.65-1.73s-1.1-1.68-4.42-2.43c-8.67-1.94-9.92-4.81-9.92-8.36s2.56-8,11.17-8c8.21,0,11.16,4.2,11.4,7.75h-8.39c-.19-.89-.74-2.16-3.27-2.16-1.67,0-2.28.69-2.28,1.55s.82,1.41,4.91,2.32c8,1.8,9.75,4.6,9.75,8.55,0,4.48-3.27,8.37-11.88,8.37-8.22,0-11.66-3.93-12.17-8.38Z" fill="none" stroke="tomato" stroke-miterlimit="10"/><path d="M253.06,291.43c0,2.23,0,5.64.05,8h-9.19c-.11-.6-.16-2-.19-2.65-1.62,2.38-3.78,3.28-6.95,3.28-5.4,0-8.27-3.28-8.27-9.25V274.31h9.34v15c0,2.28.65,3.89,2.76,3.89s3.09-1.24,3.09-5V274.31h9.36Z" fill="none" stroke="tomato" stroke-miterlimit="10"/><path d="M267.69,297.71v11h-9.31V281.08c0-2.27,0-5-.05-6.77h9.1a22.46,22.46,0,0,1,.24,2.81c1-1.5,3-3.42,7.06-3.42,5.3,0,9.85,4.38,9.85,12.58,0,9.31-5.25,13.8-11.05,13.8C270.43,300.08,268.67,299,267.69,297.71ZM275,286.65c0-4.65-1.41-6.36-3.8-6.36-2.94,0-3.86,2-3.86,6.71,0,4.35.92,6.6,3.65,6.6S275,291.49,275,286.65Z" fill="none" stroke="tomato" stroke-miterlimit="10"/><path d="M297.24,288.74c0,2.54,1,5.08,3.73,5.08,2.22,0,2.85-.95,3.33-2.27h9.19c-.92,3.35-3.77,8.53-12.68,8.53-9.5,0-13-6.4-13-13,0-7.58,4-13.4,13.17-13.4,9.76,0,12.73,6.6,12.73,12.88a20.41,20.41,0,0,1-.09,2.16Zm7.09-4.88c0-2.36-.7-4.34-3.38-4.34-2.5,0-3.46,1.84-3.62,4.34Z" fill="none" stroke="tomato" stroke-miterlimit="10"/><path d="M317.94,281.53c0-2.41,0-5-.06-7.22H327c.11.78.22,3,.22,4.09,1-2.42,3.42-4.67,7.74-4.7v8.55c-5.3-.22-7.69,1-7.69,6.88v10.34h-9.36Z" fill="none" stroke="tomato" stroke-miterlimit="10"/><path d="M338.54,264.7h9.36v11.84c1.14-1.42,3.14-2.84,6.87-2.84,6.24,0,10.08,5,10.08,12.71s-4,13.67-10.9,13.67c-3.48,0-5-1.09-6.18-2.63a12.13,12.13,0,0,1-.26,2h-9c.05-2.59.05-5.39.05-8.06Zm16.78,21.95c0-4-1.09-6.36-3.86-6.36-3,0-3.92,2-3.92,6.74,0,3.94.82,6.57,3.85,6.57C354.07,293.6,355.32,291,355.32,286.65Z" fill="none" stroke="tomato" stroke-miterlimit="10"/><path d="M395,286.86c0,7.85-4.9,13.22-13.54,13.22-8.92,0-13.34-5.86-13.34-13.13,0-7.59,4.62-13.25,13.64-13.25C390,273.7,395,279.24,395,286.86Zm-17.31.05c0,4.79,1.42,6.89,3.92,6.89s3.8-2.13,3.8-6.81c0-5.19-1.31-7-3.85-7C379.19,280,377.64,281.69,377.64,286.91Z" fill="none" stroke="tomato" stroke-miterlimit="10"/><path d="M408.47,264.7v12.24a8.59,8.59,0,0,1,7.11-3.24c5.19,0,8.27,3.26,8.27,9.5v16.27h-9.31V284.32c0-2.52-.79-3.76-2.87-3.76-2.82,0-3.2,2.19-3.2,5.27v13.64h-9.36V264.7Z" fill="none" stroke="tomato" stroke-miterlimit="10"/><path d="M452.23,292a74.45,74.45,0,0,0,.3,7.46h-8.64a10.51,10.51,0,0,1-.38-2.32c-1.2,1.56-3.05,2.93-7.1,2.93-5.65,0-8.7-3.54-8.7-8,0-5.92,4.75-8.47,12.43-8.47h3.09v-1.4c0-1.61-.58-2.79-2.83-2.79s-2.68,1-2.9,2.6h-8.64c.34-4.21,2.83-8.33,11.77-8.3,8.25,0,11.6,3.21,11.6,9.28Zm-9-3.71h-2.07c-3.23,0-4.29,1.13-4.29,3a2.51,2.51,0,0,0,2.74,2.67c3.17,0,3.62-2.18,3.62-4.88Z" fill="none" stroke="tomato" stroke-miterlimit="10"/><path d="M455.15,274.31h3.63v-6.53H468v6.53h4.42v6.31H468v10.79c0,1.56.49,2.15,2.46,2.15a12.68,12.68,0,0,0,1.3-.05v5.78a20.66,20.66,0,0,1-5.45.58c-6,0-7.62-2.9-7.62-7.65v-11.6h-3.58Z" fill="none" stroke="tomato" stroke-miterlimit="10"/><path d="M484.05,288.74c0,2.54,1,5.08,3.73,5.08,2.22,0,2.86-.95,3.33-2.27h9.19c-.91,3.35-3.77,8.53-12.68,8.53-9.5,0-13-6.4-13-13,0-7.58,4-13.4,13.17-13.4,9.75,0,12.73,6.6,12.73,12.88a17.92,17.92,0,0,1-.1,2.16Zm7.1-4.88c0-2.36-.71-4.34-3.39-4.34-2.49,0-3.46,1.84-3.61,4.34Z" fill="none" stroke="tomato" stroke-miterlimit="10"/><path d="M504.76,281.53c0-2.41,0-5-.07-7.22h9.15a40.32,40.32,0,0,1,.23,4.09c1-2.42,3.41-4.67,7.73-4.7v8.55c-5.29-.22-7.68,1-7.68,6.88v10.34h-9.36Z" fill="none" stroke="tomato" stroke-miterlimit="10"/><path d="M551,286.86c0,7.85-4.9,13.22-13.54,13.22-8.92,0-13.34-5.86-13.34-13.13,0-7.59,4.61-13.25,13.64-13.25C546,273.7,551,279.24,551,286.86Zm-2-22.9-8.44,7.21h-7.29l5.73-7.21Zm-15.28,23c0,4.79,1.41,6.89,3.91,6.89s3.81-2.13,3.81-6.81c0-5.19-1.31-7-3.85-7C535.18,280,533.64,281.69,533.64,286.91Z" fill="none" stroke="tomato" stroke-miterlimit="10"/><path d="M562.35,274.31c1.57,9.33,2.39,14.38,2.78,17.56h.17c.53-3.42,1-7.49,3.14-17.56h8.67c1.88,9.9,2.55,14.25,2.88,17.52h.15c.4-2.65,1.09-7.66,3-17.52h9.19l-7.21,25.16H575c-1.43-7.58-2.13-11.89-2.64-15.6h-.13c-.33,3.17-1.26,8.2-2.82,15.6H559.36l-6.94-25.16Z" fill="none" stroke="tomato" stroke-miterlimit="10"/></svg>