<?xml version="1.0" encoding="iso-8859-1"?>
<!-- Generator: Adobe Illustrator 19.0.0, SVG Export Plug-In . SVG Version: 6.00 Build 0)  -->
<svg xmlns="http://www.w3.org/2000/svg" xmlns:xlink="http://www.w3.org/1999/xlink" version="1.1" id="Layer_1" x="0px" y="0px" viewBox="0 0 497 497" style="enable-background:new 0 0 497 497;" xml:space="preserve" width="512" height="512">
<g>
	<path style="fill:#FFC261;" d="M349.06,475.8C318.31,489.43,284.29,497,248.5,497s-69.81-7.57-100.56-21.2l-19.983-42.503   L97.66,446C38.29,400.58,0,329.01,0,248.5C0,111.26,111.26,0,248.5,0S497,111.26,497,248.5c0,80.51-38.29,152.08-97.66,197.5   l-31.633-15.086L349.06,475.8z"/>
	<g>
		<path style="fill:#4B3F4E;" d="M106.159,142.334c-3.918,0-7.216-3.043-7.477-7.01c-0.271-4.133,2.86-7.704,6.993-7.975    c35.268-2.313,43.316-24.714,43.394-24.94c1.339-3.921,5.603-6.011,9.521-4.674c3.92,1.339,6.013,5.602,4.674,9.521    c-0.447,1.309-11.47,32.1-56.606,35.06C106.491,142.329,106.324,142.334,106.159,142.334z"/>
	</g>
	<path style="fill:#FDA756;" d="M177.94,475.8c-17.98-7.96-34.85-18-50.28-29.8C68.29,400.58,30,329.01,30,248.5   C30,116.298,133.246,8.222,263.5,0.464C258.536,0.168,253.538,0,248.5,0C111.26,0,0,111.26,0,248.5   C0,329.01,38.29,400.58,97.66,446c15.43,11.8,32.3,21.84,50.28,29.8c30.75,13.63,64.77,21.2,100.56,21.2   c5.038,0,10.036-0.166,15-0.462C233.202,494.733,204.362,487.511,177.94,475.8z"/>
	<path style="fill:#ECEAEC;" d="M151.47,363.83c-3.09,6.45-4.63,13.41-4.63,20.38c0,6.97,1.54,13.93,4.63,20.37   c3.08,6.44,4.62,13.41,4.62,20.38c0,6.96-1.54,13.93-4.62,20.37c-3.09,6.45-4.63,13.41-4.63,20.38c0,3.39,0.36,6.77,1.1,10.09   c-17.98-7.96-34.85-18-50.28-29.8c0.1-0.23,0.2-0.45,0.31-0.67c3.08-6.44,4.62-13.41,4.62-20.37c0-6.97-1.54-13.94-4.62-20.38   c-3.09-6.44-4.63-13.4-4.63-20.37c0-6.97,1.54-13.93,4.63-20.38c3.08-6.44,4.62-13.41,4.62-20.37c0-6.97-1.54-13.94-4.62-20.38   c-3.09-6.44-4.63-13.4-4.63-20.37c0-6.97,1.54-13.93,4.63-20.38c3.08-6.44,4.62-13.41,4.62-20.37c0-6.97-1.54-13.94-4.62-20.38   c-3.09-6.44-4.63-13.4-4.63-20.37c0-6.97,1.54-13.93,4.63-20.38h53.5c-6.17,12.89-6.17,27.87,0,40.75   c3.08,6.44,4.62,13.41,4.62,20.38c0,6.96-1.54,13.93-4.62,20.37c-3.09,6.45-4.63,13.41-4.63,20.38c0,6.97,1.54,13.93,4.63,20.37   c3.08,6.44,4.62,13.41,4.62,20.38C156.09,350.42,154.55,357.39,151.47,363.83z"/>
	<path style="fill:#D2D2D2;" d="M146.84,465.71c0-2.066,0.152-4.129,0.423-6.18c-6.755-4.208-13.305-8.714-19.603-13.53   c-8.858-6.777-17.235-14.148-25.097-22.032c0.007,0.331,0.027,0.661,0.027,0.992c0,6.96-1.54,13.93-4.62,20.37   c-0.11,0.22-0.21,0.44-0.31,0.67c5.786,4.425,11.775,8.603,17.949,12.516c4.116,2.609,8.314,5.1,12.589,7.469   c2.138,1.184,4.295,2.338,6.47,3.461c4.351,2.245,8.777,4.365,13.272,6.355C147.2,472.48,146.84,469.1,146.84,465.71z"/>
	<path style="fill:#ECEAEC;" d="M399.03,323.08c-3.08,6.44-4.62,13.41-4.62,20.38c0,6.96,1.54,13.93,4.62,20.37   c3.09,6.45,4.63,13.41,4.63,20.38c0,6.97-1.54,13.93-4.63,20.37c-3.08,6.44-4.62,13.41-4.62,20.38c0,6.96,1.54,13.93,4.62,20.37   c0.11,0.22,0.21,0.44,0.31,0.67c-15.43,11.8-32.3,21.84-50.28,29.8c0.74-3.32,1.1-6.7,1.1-10.09c0-6.97-1.54-13.93-4.63-20.38   c-3.08-6.44-4.62-13.41-4.62-20.37c0-6.97,1.54-13.94,4.62-20.38c3.09-6.44,4.63-13.4,4.63-20.37c0-6.97-1.54-13.93-4.63-20.38   c-3.08-6.44-4.62-13.41-4.62-20.37c0-6.97,1.54-13.94,4.62-20.38c3.09-6.44,4.63-13.4,4.63-20.37c0-6.97-1.54-13.93-4.63-20.38   c-3.08-6.44-4.62-13.41-4.62-20.37c0-6.97,1.54-13.94,4.62-20.38c6.17-12.88,6.17-27.86,0-40.75h53.5   c3.09,6.45,4.63,13.41,4.63,20.38c0,6.97-1.54,13.93-4.63,20.37c-3.08,6.44-4.62,13.41-4.62,20.38c0,6.96,1.54,13.93,4.62,20.37   c3.09,6.45,4.63,13.41,4.63,20.38C403.66,309.68,402.12,316.64,399.03,323.08z"/>
	<g>
		<path style="fill:#4B3F4E;" d="M165.281,208.333h-84c-4.143,0-7.5-3.358-7.5-7.5s3.357-7.5,7.5-7.5h84c4.143,0,7.5,3.358,7.5,7.5    S169.424,208.333,165.281,208.333z"/>
	</g>
	<g>
		<path style="fill:#4B3F4E;" d="M390.841,142.334c-0.166,0-0.331-0.005-0.499-0.017c-45.137-2.96-56.159-33.751-56.606-35.06    c-1.339-3.92,0.754-8.183,4.674-9.521c3.9-1.331,8.141,0.733,9.501,4.616c0.396,1.078,8.79,22.727,43.414,24.998    c4.133,0.271,7.264,3.841,6.993,7.975C398.057,139.291,394.759,142.334,390.841,142.334z"/>
	</g>
	<path style="fill:#4B3F4E;" d="M276.753,261.483c-5.711-9.651-16.226-16.122-28.253-16.122s-22.542,6.471-28.253,16.122   c-4.36,7.367,1.096,16.684,9.656,16.684h37.194C275.657,278.167,281.113,268.85,276.753,261.483z"/>
	<g>
		<path style="fill:#4B3F4E;" d="M415.719,208.333h-84c-4.143,0-7.5-3.358-7.5-7.5s3.357-7.5,7.5-7.5h84c4.143,0,7.5,3.358,7.5,7.5    S419.861,208.333,415.719,208.333z"/>
	</g>
</g>















</svg>
