<?xml version="1.0" encoding="iso-8859-1"?>
<!-- Generator: Adobe Illustrator 19.0.0, SVG Export Plug-In . SVG Version: 6.00 Build 0)  -->
<svg xmlns="http://www.w3.org/2000/svg" xmlns:xlink="http://www.w3.org/1999/xlink" version="1.1" id="Layer_1" x="0px" y="0px" viewBox="0 0 497 497" style="enable-background:new 0 0 497 497;" xml:space="preserve" width="512" height="512">
<g>
	<path style="fill:#4B3F4E;" d="M199.843,397.135h-6c-24.109,17.073-39.179,45.198-44.76,74.331   c-1.635,8.511-2.452,17.103-2.452,25.534h53.212l19.754-46.012L199.843,397.135z"/>
	<path style="fill:#4B3F4E;" d="M347.917,471.466c-5.581-29.132-20.651-57.258-44.76-74.331h-6v2.773l-18.737,51.08l18.737,43.643   V497h53.212C350.368,488.568,349.551,479.977,347.917,471.466z"/>
	<path style="fill:#CC8763;" d="M411.397,13.885c-2.443-2.931-6.179-4.458-9.981-4.127c-18.377,1.603-78.781,14.413-167.801-5.606   C130.633-19.005-1.993,54.318,46.511,233.59l13.223,14.542h377.533l17.788-33.501C455.054,214.631,483.014,99.811,411.397,13.885z"/>
	<path style="fill:#CD7859;" d="M210.826,0.644C112.352-7.811,1.524,67.316,46.511,233.59l13.223,14.542h30L76.511,233.59   C36.061,84.087,121.581,8.271,210.826,0.644z"/>
	<polygon style="fill:#ECEAEC;" points="199.843,397.135 199.843,497 232.157,497 249.009,486.867 264.843,497 297.157,497    297.157,397.135  "/>
	<polygon style="fill:#3D3340;" points="264.843,497 257.976,431.794 239.024,431.794 232.157,497  "/>
	<path style="fill:#5D5360;" d="M262.688,394.67h-27.384l-1.671,27.969c-0.193,3.224,1.308,6.316,3.96,8.16l7.138,4.962   c2.564,1.782,5.966,1.782,8.53,0l7.138-4.962c2.652-1.844,4.152-4.935,3.96-8.16L262.688,394.67z"/>
	<circle style="fill:#FCC1AD;" cx="437.266" cy="248.133" r="37.93"/>
	<path style="fill:#FCDFD6;" d="M400.489,108.103c-6.506-8.603-17.646-12.203-28.021-9.257c-32.1,9.117-75.437,13.423-123.968-3.334   c-87.756-30.3-164.243,10.728-183.886,79.32c-2.27,9.167-3.849,18.599-4.68,28.241c-0.125,2.356-0.201,4.73-0.201,7.128   l-0.264-0.405c-0.15,3.042-0.231,6.103-0.231,9.182c0,102.75,84.735,186.045,189.261,186.045S437.761,321.73,437.761,218.98   C437.761,177.432,423.905,139.068,400.489,108.103z"/>
	<path style="fill:#FCC1AD;" d="M89.239,218.98c0-14.644,1.334-30.033,5.375-44.146c13.922-48.614,56.4-83.372,111.203-88.715   c-68.964-6.469-124.83,31.542-141.203,88.715c-3.252,11.355-4.743,23.454-5.207,35.377c-20.797,0.176-37.604,17.083-37.604,37.922   c0,20.948,16.982,37.93,37.93,37.93c4.384,0,8.149-0.752,11.374-2.121c26.81,70.714,96.113,121.083,177.393,121.083   c5.049,0,10.051-0.199,15-0.581C165.987,396.928,89.239,316.766,89.239,218.98z"/>
	<g>
		<g id="XMLID_81_">
			<path style="fill:#4B3F4E;" d="M344.784,241.044c-4.143,0-7.5-3.358-7.5-7.5V216.9c0-4.142,3.357-7.5,7.5-7.5s7.5,3.358,7.5,7.5     v16.645C352.284,237.687,348.927,241.044,344.784,241.044z"/>
		</g>
		<g id="XMLID_80_">
			<path style="fill:#4B3F4E;" d="M152.215,241.044c-4.143,0-7.5-3.358-7.5-7.5V216.9c0-4.142,3.357-7.5,7.5-7.5s7.5,3.358,7.5,7.5     v16.645C159.715,237.687,156.357,241.044,152.215,241.044z"/>
		</g>
		<g id="XMLID_79_">
			<path style="fill:#4B3F4E;" d="M231.275,267.504c-1.752,0-3.511-0.61-4.934-1.853c-3.118-2.726-3.437-7.464-0.71-10.583     c5.657-6.472,13.992-10.183,22.868-10.183c8.877,0,17.212,3.712,22.868,10.184c2.726,3.119,2.407,7.857-0.712,10.583     c-3.117,2.726-7.855,2.408-10.583-0.712c-2.808-3.212-7.025-5.055-11.573-5.055s-8.767,1.843-11.575,5.055     C235.442,266.637,233.364,267.504,231.275,267.504z"/>
		</g>
	</g>
	<path style="fill:#A8C3DA;" d="M119.286,293.566c0,12.546,9.474,22.717,21.161,22.717c11.687,0,21.161-10.171,21.161-22.717   c0-15.756-8.668-29.332-21.161-35.552C127.954,264.234,119.286,277.809,119.286,293.566z"/>
</g>















</svg>
